<svg width="68" height="70" viewBox="0 0 68 70" fill="none" xmlns="http://www.w3.org/2000/svg">
<path d="M36.0464 16.9982V21.5587L29.9826 18.7288L23.8195 22.1947L23.9236 39.4309L24.6621 39.2386L24.5972 22.9158L30.0046 19.7358L36.0489 22.2983V38.5681H36.7838V17.5529L42.4863 13.5458L48.7254 16.9982L48.7805 41.9428L49.5227 42.1425V22.7913L52.4965 21.576L57.4605 25.0949L57.4813 46.8632L61.7093 50.7704C62.596 49.0411 63.3909 47.249 63.9396 45.3743C65.3334 40.6203 65.571 35.7627 64.5483 30.904C62.2175 19.8233 53.1591 10.8958 42.2953 8.2483V5.53666C47.7137 6.67678 52.7696 9.29104 56.9277 12.9357C76.8524 30.3999 68.3819 61.7513 43.5213 68.7079C20.6963 75.0938 -3.03507 56.9813 0.318382 32.6259C2.09186 19.7469 12.0224 9.28242 24.231 5.66238C24.2506 6.19239 24.645 8.26555 24.2922 8.56013C14.2368 11.6847 5.90828 20.1487 3.52853 30.5576C2.10411 36.7882 2.79244 43.3972 5.48941 49.1705L10.0578 45.1401L10.0897 27.7302L15.7188 26.3669C15.4787 23.733 15.5889 21.0152 15.6588 18.3578L21.3172 14.6786L26.2519 16.5065V3.99596L33.4168 0L40.0319 3.93433L40.0674 14.3248C39.94 14.7611 36.6711 16.663 36.0513 17.0007L36.0464 16.9982ZM32.2496 7.75404V5.84357C32.2496 5.80166 32.5644 5.61308 32.1896 5.65869C32.0022 5.68211 31.2833 5.88301 31.2049 6.02229L31.1473 7.93646L32.2508 7.75404H32.2496ZM29.5551 6.39822L28.4528 6.52148V8.61683C28.8202 8.59711 29.2844 8.56876 29.5551 8.30869V6.39822ZM31.2698 10.2808C31.271 10.8761 31.2698 11.4739 31.2698 12.068L32.3733 11.8203C32.132 11.2188 32.2386 10.531 32.3746 9.91349C32.3672 9.7397 31.1632 9.95416 31.1755 10.1575C31.1853 10.2155 31.2698 10.2561 31.2698 10.282V10.2808ZM29.5551 10.4657L28.4528 10.7122V12.6843L29.5551 12.561V10.4657ZM32.3721 15.8889V13.9785L32.1896 13.7973L31.2698 14.0401V16.1355L32.3721 15.8889ZM29.5551 14.5331L28.4528 14.7796V16.7517C28.8202 16.732 29.2844 16.7037 29.5551 16.4436V14.5331ZM41.9254 17.9843L41.068 18.2308V20.0796L41.9254 19.9564V17.9843ZM39.8433 18.7238L38.9859 18.9703V20.8192L39.8433 20.5727V18.7238ZM20.4917 21.4355V19.4017L20.3117 19.2366L19.5119 19.4634V21.5587L20.4917 21.4355ZM18.1647 19.8331C17.8352 19.8713 17.4237 19.9009 17.1848 20.1413V22.175L18.1647 22.0517V19.8331ZM41.9254 21.682C41.6204 21.6857 41.2873 21.767 41.068 21.9901V23.7773L41.9254 23.6541V21.682ZM39.8433 22.2983C38.5425 22.3204 39.0839 23.3361 38.9859 24.2704L39.8433 24.1471V22.2983ZM20.4917 23.4076L19.5119 23.6541V25.6878L19.6944 25.869L20.4917 25.6262V23.4076ZM28.9427 26.1192V23.9006L28.0854 24.1471V26.2425L28.9427 26.1192ZM18.1647 24.0238L17.1848 24.2704V26.3657L18.1647 26.2425V24.0238ZM26.1257 26.982L26.9267 26.6147C26.9647 26.5185 26.8606 26.4532 26.8606 26.4273V24.6401L26.1257 24.9483V26.982ZM41.9254 25.3797L41.068 25.5029V27.3518L41.9254 27.2285V25.3797ZM39.8433 25.8727L38.9859 25.9959V27.8448L39.8433 27.7215V25.8727ZM20.4917 29.8169V27.5983L19.6344 27.8448V30.0634L20.4917 29.8169ZM28.9427 27.8448L28.1981 28.1566C28.0315 28.2602 28.2078 28.3637 28.2078 28.3994V30.1866L28.9427 29.8785V27.8448ZM26.1257 28.7076V30.8029L26.9108 30.57L26.9916 30.3765L26.9831 28.5855L26.1257 28.7076ZM41.9254 29.0773L41.068 29.2006V31.0494L41.9254 30.9262V29.0773ZM39.8433 29.4471L38.9859 29.5704V31.4192L39.8433 31.296V29.4471ZM14.7353 29.5704L13.7554 29.6936V31.6657L14.7353 31.5425V29.5704ZM12.4082 31.9122V29.9401L11.5508 30.0634V32.0355L12.4082 31.9122ZM28.2078 32.0971V34.0076L28.9427 33.8843V31.9739C28.9427 31.9467 29.1252 31.8358 29.0652 31.7902L28.2078 32.0971ZM26.9831 32.4053L26.1257 32.7134V34.7471L26.9831 34.5006V32.4053ZM14.7353 33.268L13.7505 33.4616L13.7554 35.2401L14.7353 35.1181V33.2693V33.268ZM11.5508 33.7611V35.6099L12.5319 35.4867C12.4988 34.8716 12.3408 34.2652 12.407 33.6378L11.5508 33.7611ZM14.7353 36.8425L13.8779 36.9657V38.8146L14.7353 38.6913V36.8425ZM12.5307 37.2122L11.5508 37.3355V39.1843L12.5307 39.0611V37.2122ZM32.4946 41.2797L29.4326 41.4029V49.5995L24.3069 55.0006C25.9408 57.727 23.2401 61.0758 20.286 59.667C17.1542 58.1732 18.6448 53.1024 22.1195 53.5794C23.9713 52.0917 25.5905 50.2305 27.228 48.4902V41.6495C21.5708 42.4038 16.0299 44.509 11.3904 47.8357C10.7768 48.2757 6.84891 51.3855 6.9126 51.7959C14.1792 63.6346 28.3462 69.2391 41.8262 66.0159C47.9587 64.5492 53.9625 60.8996 58.0337 56.0729C58.3717 55.6711 59.9541 53.7224 60.035 53.3908C60.0656 53.2676 60.0436 53.2232 59.9958 53.116C59.959 53.0346 58.9584 51.9795 58.7845 51.7996C53.8817 46.7264 46.8955 43.5069 40.0882 42.0192V48.6751C40.1997 48.6812 40.3099 48.717 40.3834 48.8045C40.9039 49.4282 44.7901 53.5289 45.1747 53.6028C45.5593 53.6768 46.048 53.5609 46.4901 53.6349C49.2006 54.0897 49.8473 58.1892 47.3989 59.545C44.4631 61.172 41.4967 57.9698 43.1318 55.1238L37.7869 49.4516L37.7489 41.663L34.8229 41.2797V56.4402C38.8365 57.5113 38.0698 63.3943 33.9104 63.594C29.6433 63.7986 28.4504 57.7837 32.4958 56.4402V41.2797H32.4946ZM21.4409 55.6045C19.8365 55.8707 20.4844 58.1806 21.7667 58.0425C23.3038 57.8774 23.163 55.3186 21.4409 55.6045ZM45.5679 55.6033C44.119 55.8843 44.5354 58.1448 45.8765 58.0166C47.5386 57.8564 47.1944 55.2877 45.5679 55.6033ZM33.1976 58.3198C31.5074 58.7599 31.8773 61.633 33.761 61.575C36.1897 61.4998 35.7929 57.6444 33.1976 58.3198Z" fill="#061D38"/>
</svg>
